<?xml version="1.0" standalone="no"?>
<!DOCTYPE svg PUBLIC "-//W3C//DTD SVG 20010904//EN"
 "http://www.w3.org/TR/2001/REC-SVG-20010904/DTD/svg10.dtd">
<svg version="1.0" xmlns="http://www.w3.org/2000/svg"
 width="1024.000000pt" height="1024.000000pt" viewBox="0 0 1024.000000 1024.000000"
 preserveAspectRatio="xMidYMid meet">
<metadata>
Created by potrace 1.11, written by Peter Selinger 2001-2013
</metadata>
<g transform="translate(0.000000,1024.000000) scale(0.100000,-0.100000)"
fill="#000000" stroke="none">
<path d="M2973 8206 c-118 -29 -228 -108 -286 -206 -73 -125 -76 -325 -6 -462
25 -50 101 -133 149 -163 86 -54 147 -69 285 -69 113 0 138 3 190 24 81 32
122 58 177 117 80 86 118 189 118 318 0 221 -125 384 -337 439 -72 19 -216 20
-290 2z"/>
<path d="M5489 6655 c-499 -78 -870 -352 -1094 -810 -236 -479 -258 -1164 -55
-1660 144 -353 426 -634 778 -775 224 -90 440 -125 717 -117 187 6 279 21 415
67 195 67 362 198 478 375 l52 79 0 -304 c0 -406 -16 -505 -108 -684 -79 -153
-222 -277 -405 -350 -120 -48 -227 -67 -412 -73 -268 -9 -447 24 -787 141
-101 35 -205 67 -230 71 -103 16 -212 -45 -266 -149 -23 -44 -27 -63 -27 -136
0 -96 18 -140 77 -197 117 -112 450 -230 804 -283 177 -27 529 -38 697 -21
443 43 786 190 1043 446 232 232 360 523 403 917 7 64 11 604 11 1580 0 1612
2 1546 -56 1659 -34 68 -103 135 -172 167 -46 21 -75 27 -149 30 -108 5 -171
-12 -249 -64 -101 -68 -144 -158 -153 -319 l-6 -110 -44 65 c-68 100 -242 268
-339 328 -96 58 -232 105 -372 127 -118 19 -430 19 -551 0z m696 -569 c410
-112 609 -511 592 -1186 -5 -220 -22 -339 -64 -475 -105 -334 -352 -540 -688
-574 -419 -42 -787 218 -910 644 -47 162 -57 266 -52 520 5 247 20 347 74 505
109 320 319 518 614 580 70 14 364 5 434 -14z"/>
<path d="M2975 6609 c-119 -38 -205 -127 -247 -254 l-23 -70 0 -1330 0 -1330
23 -65 c62 -179 220 -280 417 -267 94 6 158 28 222 77 99 74 147 170 163 323
13 122 13 2412 0 2534 -16 155 -64 248 -165 326 -99 74 -261 98 -390 56z"/>
</g>
</svg>
