<?xml version="1.0" encoding="utf-8"?>
<!-- Generator: Adobe Illustrator 24.2.1, SVG Export Plug-In . SVG Version: 6.00 Build 0)  -->
<svg version="1.2" baseProfile="tiny" id="Capa_1" xmlns="http://www.w3.org/2000/svg" xmlns:xlink="http://www.w3.org/1999/xlink"
	 x="0px" y="0px" viewBox="0 0 72 72" overflow="visible" xml:space="preserve">
<rect y="0" fill="#3490DC" width="72" height="72"/>
<path fill="#FFFFFF" d="M19.4,19.8c-0.6-0.6-1-1.5-1-2.4c0-0.9,0.3-1.7,1-2.4c0.7-0.6,1.6-0.9,2.5-0.9c0.9,0,1.8,0.3,2.5,0.9
	c0.6,0.6,1,1.5,0.9,2.4c0,0.9-0.3,1.7-0.9,2.4c-0.7,0.6-1.6,0.9-2.5,0.9C21,20.7,20.1,20.4,19.4,19.8z M19.8,48
	c-0.6-0.7-0.8-1.5-0.8-2.4V28.7c-0.1-0.9,0.2-1.8,0.8-2.4c1.2-1.2,3.1-1.2,4.2,0c0.6,0.7,0.9,1.5,0.8,2.4v16.9
	c0,0.9-0.3,1.8-0.9,2.4C22.8,49.2,20.9,49.2,19.8,48L19.8,48z"/>
<path fill="#FFFFFF" d="M47.7,45.1c-1.3,2.5-3.7,3.8-7,3.8c-3,0.1-6-1-8.1-3.1c-2.1-2.3-3.2-5.4-3-8.5c-0.1-3.2,0.9-6.3,3-8.8
	c2-2.3,5-3.5,8-3.4c1.5-0.1,3.1,0.3,4.5,1c1.1,0.7,2.1,1.7,2.8,2.9v-1.1c0-0.7,0.3-1.4,0.9-1.9c0.5-0.4,1.2-0.7,1.8-0.6
	c0.8,0,1.5,0.3,2,0.9c0.6,0.7,0.8,1.5,0.8,2.4v19.2c0,3.7-1.1,6.5-3.2,8.5s-5.1,2.9-8.8,2.9c-1.6,0-3.2-0.2-4.8-0.5
	c-1.2-0.2-2.4-0.7-3.5-1.3c-0.7-0.3-1.1-1-1.1-1.8c0-0.5,0.2-1,0.5-1.4c0.3-0.4,0.8-0.6,1.4-0.6c0.3,0,0.5,0.1,0.8,0.1l1.3,0.4
	c0.7,0.2,1.2,0.4,1.5,0.5c0.5,0.1,1,0.2,1.5,0.3c0.6,0.1,1.3,0.2,1.9,0.2c1.8,0.1,3.7-0.5,5.1-1.6c1.3-1.3,2-3.1,1.8-5L47.7,45.1z
	 M46.1,43.1c1.1-1.2,1.6-3.2,1.6-5.9c0-5.4-2-8.1-6-8.1c-0.8,0-1.6,0.1-2.4,0.4c-0.7,0.3-1.3,0.7-1.8,1.2c-0.5,0.5-0.9,1.1-1.2,1.8
	c-0.3,0.7-0.5,1.4-0.7,2.2c-0.1,0.8-0.2,1.7-0.2,2.5c0,2.6,0.6,4.5,1.8,5.8c1.1,1.3,2.7,2,4.4,2C43.4,45,45,44.3,46.1,43.1z"/>
</svg>
