<?xml version="1.0" standalone="no"?>
<!DOCTYPE svg PUBLIC "-//W3C//DTD SVG 20010904//EN"
 "http://www.w3.org/TR/2001/REC-SVG-20010904/DTD/svg10.dtd">
<svg version="1.0" xmlns="http://www.w3.org/2000/svg"
 width="1024.000000pt" height="1024.000000pt" viewBox="0 0 1024.000000 1024.000000"
 preserveAspectRatio="xMidYMid meet">
<metadata>
Created by potrace 1.11, written by Peter Selinger 2001-2013
</metadata>
<g transform="translate(0.000000,1024.000000) scale(0.100000,-0.100000)"
fill="#000000" stroke="none">
<path d="M0 5120 l0 -5120 5120 0 5120 0 0 5120 0 5120 -5120 0 -5120 0 0
-5120z m3242 3096 c283 -61 433 -334 337 -615 -61 -178 -218 -287 -429 -298
-309 -17 -520 173 -520 468 0 225 139 395 362 444 83 18 167 18 250 1z m2813
-1561 c240 -42 391 -120 554 -285 42 -42 101 -111 131 -154 l55 -77 5 113 c5
93 10 123 32 169 35 78 89 133 162 169 164 81 340 56 462 -65 55 -55 96 -131
113 -213 8 -38 11 -490 11 -1557 0 -1629 1 -1604 -55 -1832 -67 -276 -188
-490 -383 -675 -242 -230 -552 -364 -967 -419 -132 -17 -493 -15 -654 5 -366
44 -715 152 -865 265 -44 34 -68 62 -90 103 -88 174 28 395 218 415 45 5 81
-4 296 -76 331 -109 490 -140 710 -141 223 0 387 33 545 110 260 127 398 336
435 660 5 47 10 211 10 365 l0 280 -27 -45 c-207 -349 -592 -517 -1105 -480
-428 31 -762 178 -1025 453 -301 315 -436 723 -420 1276 15 535 180 950 504
1262 246 237 532 359 923 393 86 8 336 -4 425 -19z m-2837 -30 c34 -8 81 -24
104 -36 56 -29 131 -106 163 -169 56 -110 55 -77 55 -1461 0 -1244 -1 -1278
-20 -1354 -25 -99 -55 -149 -125 -213 -71 -66 -143 -93 -257 -100 -194 -10
-343 85 -410 263 l-23 60 -3 1315 c-1 832 1 1332 7 1361 35 164 130 279 266
322 94 30 154 33 243 12z"/>
<path d="M5785 6103 c-109 -15 -234 -65 -332 -131 -179 -122 -313 -361 -368
-658 -23 -120 -31 -449 -15 -584 31 -268 118 -474 266 -626 167 -171 365 -254
604 -254 230 0 414 73 566 225 124 124 204 294 246 524 29 158 31 539 5 709
-85 542 -357 807 -825 801 -65 -1 -130 -4 -147 -6z"/>
</g>
</svg>
