<svg id="Capa_1" data-name="Capa 1" xmlns="http://www.w3.org/2000/svg" viewBox="0 0 72 72"><defs><style>.cls-1{fill:#3490dc;}.cls-2{fill:#fff;}</style></defs><title>icono</title><rect class="cls-1" width="72" height="72"/><path class="cls-2" d="M19.43,19.78a3.11,3.11,0,0,1-.95-2.35,3.1,3.1,0,0,1,.95-2.35,3.51,3.51,0,0,1,2.5-.89,3.46,3.46,0,0,1,2.46.89,3.12,3.12,0,0,1,.93,2.35,3.1,3.1,0,0,1-.94,2.35,3.47,3.47,0,0,1-2.48.9A3.44,3.44,0,0,1,19.43,19.78ZM19.79,48A3.39,3.39,0,0,1,19,45.6V28.68a3.44,3.44,0,0,1,.82-2.44,3,3,0,0,1,4.23,0,3.36,3.36,0,0,1,.84,2.44V45.6A3.32,3.32,0,0,1,24,48a3,3,0,0,1-4.23,0Z"/><path class="cls-2" d="M47.68,45.13q-2,3.76-7,3.77a10.78,10.78,0,0,1-8.11-3.13,11.64,11.64,0,0,1-3.05-8.49,12.84,12.84,0,0,1,3-8.8,10.14,10.14,0,0,1,8.05-3.39,8.61,8.61,0,0,1,4.45,1,8.59,8.59,0,0,1,2.79,2.86V27.85A2.6,2.6,0,0,1,48.68,26a2.76,2.76,0,0,1,1.84-.65,2.57,2.57,0,0,1,2,.87,3.43,3.43,0,0,1,.79,2.41V47.87c0,3.7-1.08,6.52-3.22,8.46S45,59.24,41.33,59.24a21.31,21.31,0,0,1-4.79-.53A12,12,0,0,1,33,57.41a2,2,0,0,1-1.08-1.78,2.08,2.08,0,0,1,.54-1.41,1.76,1.76,0,0,1,1.36-.61,2.21,2.21,0,0,1,.75.14l1.26.44c.71.24,1.22.41,1.55.5a13.06,13.06,0,0,0,1.47.31,11.28,11.28,0,0,0,1.91.16,7.41,7.41,0,0,0,5.11-1.63,6.33,6.33,0,0,0,1.82-5Zm-1.61-2.08c1.07-1.25,1.61-3.22,1.61-5.89q0-8.13-6-8.13a6.21,6.21,0,0,0-2.37.43,5,5,0,0,0-1.75,1.17,6.49,6.49,0,0,0-1.18,1.78,9.62,9.62,0,0,0-.68,2.21,13.93,13.93,0,0,0-.21,2.49q0,3.87,1.77,5.85a5.85,5.85,0,0,0,4.44,2A5.54,5.54,0,0,0,46.07,43.05Z"/></svg>