<svg id="Capa_1" data-name="Capa 1" xmlns="http://www.w3.org/2000/svg" viewBox="0 0 288 72"><title>logo-original</title><path d="M16.54,11.67a4.64,4.64,0,0,1-1.42-3.53,4.6,4.6,0,0,1,1.42-3.52,5.26,5.26,0,0,1,3.75-1.33A5.14,5.14,0,0,1,24,4.62a4.66,4.66,0,0,1,1.4,3.52A4.64,4.64,0,0,1,24,11.67,5.19,5.19,0,0,1,20.25,13,5.19,5.19,0,0,1,16.54,11.67ZM17.09,54a5.06,5.06,0,0,1-1.23-3.64V25a5.09,5.09,0,0,1,1.23-3.65,4.14,4.14,0,0,1,3.16-1.3,4.2,4.2,0,0,1,3.18,1.3A5,5,0,0,1,24.68,25V50.4A5,5,0,0,1,23.43,54a4.24,4.24,0,0,1-3.18,1.3A4.2,4.2,0,0,1,17.09,54Z"/><path d="M34.89,54a5.17,5.17,0,0,1-1.21-3.66V9.58a5.13,5.13,0,0,1,1.23-3.66,4.19,4.19,0,0,1,3.16-1.3,4.27,4.27,0,0,1,3.19,1.3A5.09,5.09,0,0,1,42.5,9.58V35.31L57.06,20.83a3.39,3.39,0,0,1,2.56-1.23,3.52,3.52,0,0,1,2.64,1.25,4,4,0,0,1,1.16,2.83,3.38,3.38,0,0,1-1,2.42L51.82,36.3,64,49a3.63,3.63,0,0,1-.19,5.29,4.09,4.09,0,0,1-2.87,1.17A3.92,3.92,0,0,1,57.83,54L42.5,37.63V50.36A5.05,5.05,0,0,1,41.24,54,4.35,4.35,0,0,1,38,55.32,4.1,4.1,0,0,1,34.89,54Z"/><path d="M72,53.05a8.82,8.82,0,0,1-3.43-7.4A14.19,14.19,0,0,1,69,41.94a9.18,9.18,0,0,1,1.23-2.76,6.53,6.53,0,0,1,2.23-2,16.06,16.06,0,0,1,3.06-1.32,23.33,23.33,0,0,1,4.1-.79c1.65-.18,3.32-.31,5-.37s3.72-.08,6.11-.08V31.94c0-2.2-.52-3.82-1.56-4.83a6.41,6.41,0,0,0-4.66-1.53c-.44,0-.9,0-1.35.05a13.51,13.51,0,0,0-1.39.17L80.58,26a9.93,9.93,0,0,0-1.27.29c-.49.15-.86.25-1.12.32s-.64.19-1.13.37l-1,.33-1,.37-.77.3a2.35,2.35,0,0,1-1,.18,2.66,2.66,0,0,1-2.1-1,3.58,3.58,0,0,1-.86-2.34A2.53,2.53,0,0,1,72,22.34,30.08,30.08,0,0,1,85,19.6a21,21,0,0,1,5.8.74,13.11,13.11,0,0,1,4.54,2.28,10,10,0,0,1,3,4.19A16.52,16.52,0,0,1,99.42,33V50.89a4.3,4.3,0,0,1-1.23,3.27,4.16,4.16,0,0,1-3,1.16,4.22,4.22,0,0,1-3-1.16A4.27,4.27,0,0,1,91,50.89V49.73a9.57,9.57,0,0,1-3.64,4.34,11.72,11.72,0,0,1-6.59,1.67A14,14,0,0,1,72,53.05Zm16-5.64a9.65,9.65,0,0,0,2.71-7v-1c-2.35,0-4.2,0-5.57.1a35.55,35.55,0,0,0-3.91.41,6.24,6.24,0,0,0-2.72,1,4.35,4.35,0,0,0-1.37,1.68,6.23,6.23,0,0,0-.49,2.66A4.76,4.76,0,0,0,78.1,48.9a5.42,5.42,0,0,0,3.78,1.29A8.37,8.37,0,0,0,88,47.41Z"/><path d="M107.47,49.41a3,3,0,0,1,.79-2,2.63,2.63,0,0,1,2-.88,3.77,3.77,0,0,1,1.82.53c1,.59,1.86,1,2.48,1.34a18.85,18.85,0,0,0,3,1,15.17,15.17,0,0,0,4.15.58,14.83,14.83,0,0,0,3.63-.4,6.09,6.09,0,0,0,2.75-1.48,3.61,3.61,0,0,0,1.14-2.76q0-3-4.89-4.18l-5.48-1.41c-1.67-.44-3-.84-4-1.19a21.58,21.58,0,0,1-3.13-1.35,7.8,7.8,0,0,1-2.43-1.83,8,8,0,0,1-1.37-2.5,10.52,10.52,0,0,1-.53-3.5,8.38,8.38,0,0,1,3.87-7.4q3.87-2.58,10.16-2.58A26.11,26.11,0,0,1,133,22a3,3,0,0,1,1.9,2.81,2.72,2.72,0,0,1-.72,1.91,2.46,2.46,0,0,1-1.92.79,4,4,0,0,1-1.37-.28s-.28-.09-.77-.28-.84-.31-1-.37-.57-.17-1.11-.35-1-.3-1.39-.38-.84-.18-1.38-.29a15.34,15.34,0,0,0-1.6-.22c-.53-.05-1.06-.08-1.6-.08a10.71,10.71,0,0,0-4.61.9,2.93,2.93,0,0,0-1.9,2.76,2.87,2.87,0,0,0,1,2.44,11,11,0,0,0,4,1.46l5.41,1.37q5.65,1.41,8.28,3.84a8.7,8.7,0,0,1,2.62,6.71,9.51,9.51,0,0,1-4,8.23q-3.95,2.85-10.28,2.85a22.73,22.73,0,0,1-13.78-4.08A2.79,2.79,0,0,1,107.47,49.41Z"/><path d="M169.17,49.69q-3,5.67-10.47,5.66t-12.17-4.69Q142,46,142,37.92t4.45-13.21q4.44-5.07,12.07-5.08a12.85,12.85,0,0,1,6.68,1.48,13,13,0,0,1,4.19,4.29V23.78A3.91,3.91,0,0,1,170.67,21a4.14,4.14,0,0,1,2.76-1,3.86,3.86,0,0,1,3,1.3A5.16,5.16,0,0,1,177.61,25V53.81q0,8.32-4.83,12.69c-3.23,2.9-7.6,4.36-13.14,4.36a32.24,32.24,0,0,1-7.18-.79,18.39,18.39,0,0,1-5.33-1.95,3,3,0,0,1-1.62-2.68,3.1,3.1,0,0,1,.81-2.11,2.6,2.6,0,0,1,2-.91,3.17,3.17,0,0,1,1.12.21l1.9.65c1.06.36,1.83.62,2.32.76a22,22,0,0,0,2.2.45,16.62,16.62,0,0,0,2.87.25q4.92,0,7.66-2.44t2.74-7.44Zm-2.42-3.11q2.42-2.82,2.42-8.84,0-12.2-8.93-12.2a9.35,9.35,0,0,0-3.55.65A7.73,7.73,0,0,0,154.05,28a9.58,9.58,0,0,0-1.75,2.67,14.14,14.14,0,0,0-1,3.31,20.93,20.93,0,0,0-.32,3.74q0,5.8,2.66,8.77a8.74,8.74,0,0,0,6.66,3A8.28,8.28,0,0,0,166.75,46.58Z"/><path d="M186.87,28.51a16,16,0,0,1,6-6.45,17.45,17.45,0,0,1,9.32-2.46A18.13,18.13,0,0,1,209.44,21a12.9,12.9,0,0,1,5.07,3.75,17.16,17.16,0,0,1,2.9,5.38,21.59,21.59,0,0,1,1,6.46,3.61,3.61,0,0,1-.64,2.22,2.22,2.22,0,0,1-1.9.84H193.68q.56,9.91,10.16,9.92,4.35,0,9.31-3.55a2.18,2.18,0,0,1,1.37-.5,2.51,2.51,0,0,1,1.94,1,3.32,3.32,0,0,1,.84,2.21,3,3,0,0,1-1.12,2.39,19.54,19.54,0,0,1-13,4.68q-8.32,0-13.34-4.85t-5-13.54A19.38,19.38,0,0,1,186.87,28.51Zm24,6.14A11.73,11.73,0,0,0,208.56,28a7.31,7.31,0,0,0-6.1-2.6,7.56,7.56,0,0,0-6.17,2.71,11.51,11.51,0,0,0-2.54,6.54Z"/><path d="M226.74,54a5.1,5.1,0,0,1-1.21-3.64V9.58A5.06,5.06,0,0,1,226.76,6a4.14,4.14,0,0,1,3.16-1.3,4.26,4.26,0,0,1,3.2,1.3,5,5,0,0,1,1.27,3.62V50.4A4.93,4.93,0,0,1,233.1,54a4.39,4.39,0,0,1-3.25,1.3A4.12,4.12,0,0,1,226.74,54Z"/><path d="M245,53.05a8.82,8.82,0,0,1-3.43-7.4,14.19,14.19,0,0,1,.44-3.71,9.18,9.18,0,0,1,1.23-2.76,6.53,6.53,0,0,1,2.23-2,16.06,16.06,0,0,1,3.06-1.32,23.33,23.33,0,0,1,4.1-.79c1.65-.18,3.32-.31,5-.37s3.73-.08,6.12-.08V31.94c0-2.2-.52-3.82-1.56-4.83a6.43,6.43,0,0,0-4.66-1.53c-.45,0-.9,0-1.35.05a13.51,13.51,0,0,0-1.39.17l-1.23.22a9.93,9.93,0,0,0-1.27.29c-.49.15-.87.25-1.12.32s-.64.19-1.13.37l-.95.33-1,.37-.77.3a2.35,2.35,0,0,1-1,.18,2.65,2.65,0,0,1-2.1-1,3.58,3.58,0,0,1-.86-2.34A2.53,2.53,0,0,1,245,22.34a30.08,30.08,0,0,1,13-2.74,21,21,0,0,1,5.8.74,13.2,13.2,0,0,1,4.54,2.28,10,10,0,0,1,3,4.19A16.52,16.52,0,0,1,272.39,33V50.89a4.3,4.3,0,0,1-1.23,3.27,4.16,4.16,0,0,1-3,1.16A4.13,4.13,0,0,1,264,50.89V49.73a9.57,9.57,0,0,1-3.64,4.34,11.75,11.75,0,0,1-6.59,1.67A14,14,0,0,1,245,53.05Zm16-5.64a9.69,9.69,0,0,0,2.71-7v-1c-2.35,0-4.2,0-5.58.1a35.62,35.62,0,0,0-3.9.41,6.24,6.24,0,0,0-2.72,1,4.26,4.26,0,0,0-1.37,1.68,6.22,6.22,0,0,0-.5,2.66,4.77,4.77,0,0,0,1.43,3.74,5.42,5.42,0,0,0,3.78,1.29A8.39,8.39,0,0,0,261,47.41Z"/></svg>