<?xml version="1.0" encoding="utf-8"?>
<!-- Generator: Adobe Illustrator 23.1.1, SVG Export Plug-In . SVG Version: 6.00 Build 0)  -->
<svg version="1.1"
	 id="svg8" xmlns:cc="http://creativecommons.org/ns#" xmlns:dc="http://purl.org/dc/elements/1.1/" xmlns:inkscape="http://www.inkscape.org/namespaces/inkscape" xmlns:rdf="http://www.w3.org/1999/02/22-rdf-syntax-ns#" xmlns:sodipodi="http://sodipodi.sourceforge.net/DTD/sodipodi-0.dtd" xmlns:svg="http://www.w3.org/2000/svg"
	 xmlns="http://www.w3.org/2000/svg" xmlns:xlink="http://www.w3.org/1999/xlink" x="0px" y="0px" viewBox="0 0 340.2 340.2"
	 style="enable-background:new 0 0 340.2 340.2;" xml:space="preserve">
<style type="text/css">
	
		.st0{display:none;opacity:0.99;fill:#E6E6E6;fill-opacity:0.2464;stroke:#000000;stroke-width:0.183;stroke-linecap:round;stroke-miterlimit:11.3386;enable-background:new    ;}
	
		.st1{opacity:0.99;fill:#999999;fill-opacity:0.7706;stroke:#000000;stroke-width:0.1856;stroke-linecap:round;stroke-miterlimit:11.3386;enable-background:new    ;}
	
		.st2{opacity:0.99;fill:#E6E6E6;stroke:#000000;stroke-width:0.1949;stroke-linecap:round;stroke-miterlimit:3;enable-background:new    ;}
</style>
<sodipodi:namedview  bordercolor="#666666" borderopacity="1.0" fit-margin-bottom="0" fit-margin-left="0" fit-margin-right="0" fit-margin-top="0" id="base" inkscape:current-layer="layer1" inkscape:cx="96.728967" inkscape:cy="188.27139" inkscape:document-units="mm" inkscape:pageopacity="0.0" inkscape:pageshadow="2" inkscape:window-height="1017" inkscape:window-maximized="1" inkscape:window-width="1920" inkscape:window-x="-8" inkscape:window-y="-8" inkscape:zoom="1.1894531" pagecolor="#ffffff" showgrid="false">
	</sodipodi:namedview>
<g id="layer1" transform="translate(-43.204007,-85.320039)" inkscape:groupmode="layer" inkscape:label="Layer 1">
	<rect id="rect4576" x="43.9" y="85.4" class="st0" width="338.7" height="340"/>
	<g id="g4574" transform="translate(126.12414,-0.65106087)">
		
			<path id="path4498" sodipodi:cx="-22.920111" sodipodi:cy="145.97115" sodipodi:end="6.2663603" sodipodi:open="true" sodipodi:rx="59.967239" sodipodi:ry="59.967209" sodipodi:start="0" sodipodi:type="arc" class="st1" d="
			M257.1,256.1c0,93.6-75.7,169.6-169.3,170c-93.6,0.4-169.9-75-170.7-168.6C-83.6,163.9-8.6,87.3,85,86.1
			c93.6-1.2,170.5,73.5,172.1,167.1"/>
		<path id="path4500" inkscape:connector-curvature="0" class="st2" d="M86.2,138.6c-42.9,0.5-77.2,35.6-76.9,78.5
			c0.2,24.3,11.8,47.1,31.3,61.7C3.9,296.7-19.3,334.1-19,375c0.1,4.9,0.5,9.7,1.2,14.5c2.7,2.2,5.5,4.3,8.4,6.3
			C-11,389-11.9,382-12,375c-0.3-39.7,23.1-75.7,59.5-91.6c12.1,7.2,25.9,11,40,10.9c13.8-0.1,27.4-3.9,39.3-10.9
			c35.5,15.5,58.8,50.3,59.5,89.1l0,1.7c0,7.2-0.8,14.4-2.4,21.5c2.8-1.9,5.6-3.9,8.3-5.9c0.8-5.1,1.2-10.3,1.2-15.6l0-1.8
			c-0.7-39.9-23.7-76.1-59.6-93.6c-0.1,0-0.1,0.1-0.2,0.1c19.7-14.7,31.4-37.8,31.4-62.4l0-1.3C164.3,172.3,129,138.1,86.2,138.6z
			 M86.3,145.7c39-0.5,71,30.6,71.7,69.6l0,1.2c0,39-31.5,70.6-70.5,70.8c-39,0.2-70.7-31.2-71.1-70.2
			C16.1,178.1,47.3,146.2,86.3,145.7z"/>
	</g>
</g>
</svg>
